HIERARCHY
ROOT root
{
	OFFSET 0.000000 0.000000 0.000000
	CHANNELS 6 Xposition Yposition Zposition Zrotation Yrotation Xrotation
	JOINT lhip
	{
		OFFSET 0.058581 -0.082280 -0.017664
		CHANNELS 3 Zrotation Yrotation Xrotation
		JOINT lknee
		{
			OFFSET 0.043451 -0.386469 0.008037
			CHANNELS 3 Zrotation Yrotation Xrotation
			JOINT lankle
			{
				OFFSET -0.014790 -0.426874 -0.037428
				CHANNELS 3 Zrotation Yrotation Xrotation
				JOINT ltoe
				{
					OFFSET 0.041054 -0.060286 0.122042
					CHANNELS 3 Zrotation Yrotation Xrotation
					End Site
					{
						OFFSET 0.000000 0.000000 0.000000
					}
				}
			}
		}
	}
	JOINT rhip
	{
		OFFSET -0.060310 -0.090513 -0.013543
		CHANNELS 3 Zrotation Yrotation Xrotation
		JOINT rknee
		{
			OFFSET -0.043257 -0.383688 -0.004843
			CHANNELS 3 Zrotation Yrotation Xrotation
			JOINT rankle
			{
				OFFSET 0.019056 -0.420046 -0.034562
				CHANNELS 3 Zrotation Yrotation Xrotation
				JOINT rtoe
				{
					OFFSET -0.034840 -0.062106 0.130323
					CHANNELS 3 Zrotation Yrotation Xrotation
					End Site
					{
						OFFSET 0.000000 0.000000 0.000000
					}
				}
			}
		}
	}
	JOINT lowerback
	{
		OFFSET 0.004439 0.124404 -0.038385
		CHANNELS 3 Zrotation Yrotation Xrotation
		JOINT upperback
		{
			OFFSET 0.004488 0.137956 0.026820
			CHANNELS 3 Zrotation Yrotation Xrotation
			JOINT chest
			{
				OFFSET -0.002265 0.056032 0.002855
				CHANNELS 3 Zrotation Yrotation Xrotation
				JOINT lowerneck
				{
					OFFSET -0.013390 0.211636 -0.033468
					CHANNELS 3 Zrotation Yrotation Xrotation
					JOINT upperneck
					{
						OFFSET 0.010113 0.088937 0.050410
						CHANNELS 3 Zrotation Yrotation Xrotation
						End Site
						{
							OFFSET 0.000000 0.000000 0.000000
						}
					}
				}
				JOINT lclavicle
				{
					OFFSET 0.071702 0.114000 -0.018898
					CHANNELS 3 Zrotation Yrotation Xrotation
					JOINT lshoulder
					{
						OFFSET 0.122921 0.045205 -0.019046
						CHANNELS 3 Zrotation Yrotation Xrotation
						JOINT lelbow
						{
							OFFSET 0.255332 -0.015649 -0.022946
							CHANNELS 3 Zrotation Yrotation Xrotation
							JOINT lwrist
							{
								OFFSET 0.265709 0.012698 -0.007375
								CHANNELS 3 Zrotation Yrotation Xrotation
								End Site
								{
									OFFSET 0.000000 0.000000 0.000000
								}
							}
						}
					}
				}
				JOINT rclavicle
				{
					OFFSET -0.082954 0.112472 -0.023707
					CHANNELS 3 Zrotation Yrotation Xrotation
					JOINT rshoulder
					{
						OFFSET -0.113228 0.046853 -0.008472
						CHANNELS 3 Zrotation Yrotation Xrotation
						JOINT relbow
						{
							OFFSET -0.260127 -0.014369 -0.031269
							CHANNELS 3 Zrotation Yrotation Xrotation
							JOINT rwrist
							{
								OFFSET -0.269108 0.006794 -0.006027
								CHANNELS 3 Zrotation Yrotation Xrotation
								End Site
								{
									OFFSET 0.000000 0.000000 0.000000
								}
							}
						}
					}
				}
			}
		}
	}
}
MOTION
Frames: 11
Frame Time: 0.033333
-0.085243 -1.695128 0.949264 -141.480310 -3.629150 93.131744 -1.075397 -8.182162 -17.836898 -7.579059 -7.855393 34.759992 7.394109 7.074237 -30.406534 0.000000 -0.000000 0.000000 -3.761609 -5.797679 -13.512624 -4.672318 -7.613692 56.446058 4.809085 -9.893325 -13.186057 0.000000 -0.000000 0.000000 -5.932499 8.812120 17.590242 -0.468075 -1.391821 -8.426512 0.348730 7.710077 -1.107511 -5.662200 -18.651695 5.843541 7.536302 -38.294912 7.577586 9.330285 -30.744486 -21.011144 2.419630 -45.478379 -17.828125 80.334764 -51.465264 -77.651230 25.369308 -13.211808 -10.251782 -4.255953 43.395818 -12.574094 5.911088 49.453029 -22.066235 -78.919103 51.146045 -68.166749 -34.784800 23.789931 -2.321992 
-0.082210 -1.697246 0.944789 -140.142190 -4.441455 93.842825 -1.662274 -9.447628 -19.633825 -7.427710 -7.414100 35.815479 7.552576 6.936333 -30.386701 0.000000 -0.000000 0.000000 -3.196661 -5.239531 -13.418903 -6.000917 -8.538866 55.572457 4.253513 -11.427179 -14.848559 0.000000 -0.000000 0.000000 -6.129948 9.187103 18.179895 -0.900598 -1.189469 -8.322664 0.333425 7.811348 -0.240945 -4.775793 -18.333057 3.230642 9.245471 -38.104209 5.539446 8.183658 -29.871857 -21.049527 -0.982618 -45.373942 -15.078420 85.615444 -51.288907 -81.234214 27.184863 -12.787908 -10.174943 -3.965469 43.318637 -13.465192 10.792560 50.759656 -17.795824 -80.696460 52.169730 -68.316658 -34.191388 23.791448 -2.518566 
-0.078592 -1.698689 0.940358 -138.517662 -5.094647 94.168040 -1.929139 -10.735814 -21.162029 -7.442929 -7.400750 37.067936 7.055715 6.463870 -30.754643 0.000000 -0.000000 0.000000 -2.779800 -5.123488 -13.417825 -7.055690 -9.049445 55.332899 4.018229 -11.902589 -17.040904 0.000000 -0.000000 0.000000 -6.171687 9.788759 19.259479 -0.988148 -1.030698 -7.890808 0.716777 7.760825 -0.532781 -4.535255 -19.724150 3.354267 9.329569 -38.951647 5.230527 5.880030 -29.585269 -19.985173 -5.778696 -45.269861 -12.378425 91.722037 -51.445305 -85.374167 27.717584 -12.646086 -10.184746 -2.900996 43.567357 -12.797857 15.366140 51.243849 -14.231074 -82.635338 53.927713 -68.804783 -35.074583 23.919885 -1.879716 
-0.073871 -1.699500 0.935225 -137.418904 -5.729348 94.566449 -1.932413 -11.449836 -22.876315 -8.069146 -7.215871 38.370144 7.629481 6.440603 -31.021710 0.000000 -0.000000 0.000000 -2.690059 -4.704069 -14.234892 -7.540518 -9.059171 56.451490 3.525862 -12.149147 -18.334980 0.000000 -0.000000 0.000000 -5.907041 10.009836 20.798646 -1.429825 -0.701923 -8.014535 0.715549 7.796669 -0.287088 -4.266863 -20.785231 2.508280 10.110224 -39.033701 4.556363 3.560618 -29.028026 -18.440615 -9.734041 -44.044802 -9.469819 99.206570 -51.533820 -90.350433 28.421980 -11.892075 -10.699464 -2.581104 43.554193 -13.103401 23.269169 51.840124 -8.279106 -86.353282 54.696554 -68.973783 -33.787497 23.708139 -1.840885 
-0.068798 -1.699934 0.929755 -136.419159 -6.088899 94.709821 -1.785792 -11.684083 -24.328775 -8.072684 -6.808955 39.951204 7.590856 5.344692 -31.691097 0.000000 -0.000000 0.000000 -2.740259 -4.532567 -15.358934 -8.155377 -9.160950 58.477748 3.756472 -11.060969 -19.205877 0.000000 -0.000000 0.000000 -5.912094 10.511052 22.322938 -1.500521 -0.201540 -7.751726 1.041018 7.688107 -0.091901 -3.237633 -21.354353 0.829788 10.582432 -39.787996 3.868321 0.986597 -28.287745 -17.187408 -15.448911 -44.225359 -5.734281 105.982168 -51.033095 -95.486702 29.472582 -12.032231 -9.494688 -0.033662 43.018463 -11.712114 25.785634 50.592557 -5.147342 -90.116316 58.561634 -74.399416 -36.853160 23.713958 -0.265866 
-0.063109 -1.700187 0.923416 -135.415253 -6.271100 94.926340 -1.241514 -12.282798 -25.781868 -8.102650 -6.353222 41.331011 7.775353 4.710520 -32.533958 0.000000 -0.000000 0.000000 -3.035682 -4.551871 -17.019208 -8.433621 -9.675919 61.326576 3.626557 -10.137844 -19.242045 0.000000 -0.000000 0.000000 -5.792599 10.830743 23.476247 -1.458406 0.270119 -6.922907 1.440809 7.402099 0.212195 -2.436515 -22.087135 -0.732498 11.219473 -39.648638 3.132459 -1.696996 -27.129795 -15.878725 -22.036773 -43.618729 -1.817592 113.226594 -50.682558 -100.163874 28.380200 -12.119880 -9.597246 1.555650 41.865712 -11.209295 32.910306 49.557350 0.848267 -96.125284 61.509468 -78.031353 -33.592435 25.446863 1.152003 
-0.056036 -1.698183 0.916946 -134.894410 -6.089365 94.748155 -0.455604 -11.269212 -27.043445 -8.399902 -5.840114 43.246520 8.172928 3.704824 -33.054204 0.000000 -0.000000 0.000000 -3.165445 -5.091956 -18.708600 -8.727374 -10.177713 64.776112 3.350743 -8.779681 -18.509779 0.000000 -0.000000 0.000000 -5.748500 11.167293 25.737402 -1.323174 0.600292 -6.797406 1.559883 7.646407 -0.067547 -0.860113 -23.000746 -1.018939 12.118065 -39.880786 2.199821 -4.398688 -26.179979 -13.678176 -27.158521 -41.932746 1.623581 120.178979 -51.074171 -105.387990 30.148191 -11.823134 -9.635518 3.837086 40.570463 -10.402986 40.289008 47.047897 6.414838 -102.685146 63.998257 -83.799427 -33.953286 25.415907 -0.677790 
-0.049364 -1.696135 0.909725 -134.494005 -5.900945 95.204765 0.299316 -11.278556 -28.988922 -8.053081 -5.414511 45.461207 8.488480 3.339993 -33.909611 0.000000 -0.000000 0.000000 -3.686037 -6.251491 -21.473349 -8.656931 -10.749500 68.776159 2.327589 -6.795469 -16.738303 0.000000 -0.000000 0.000000 -5.011161 10.631249 27.918654 -1.858367 0.735674 -7.471396 1.386227 7.388974 0.333601 -0.916510 -23.145240 -2.577709 13.743717 -39.890108 2.495250 -6.062838 -23.683446 -13.192443 -34.943608 -39.336921 5.775770 127.496719 -51.785734 -110.315013 31.767903 -10.518374 -12.679522 5.401196 38.998957 -8.853423 48.784493 44.368027 11.811684 -111.090850 66.779935 -90.227485 -36.144301 25.690999 -1.518749 
-0.039741 -1.694037 0.902870 -135.407540 -5.319942 95.594288 1.966308 -10.329177 -30.544611 -8.400190 -4.788060 47.171682 8.553171 3.086756 -34.902502 0.000000 -0.000000 0.000000 -4.114701 -6.011762 -24.613655 -8.937045 -11.068504 73.975065 3.068282 -6.889835 -17.774099 0.000000 -0.000000 0.000000 -5.527929 11.402406 29.121181 -1.464414 1.982162 -6.223525 2.169179 7.131463 -0.059305 0.788209 -24.765364 -3.048037 14.566920 -39.146426 -0.169641 -9.775843 -22.430295 -10.047236 -37.514997 -35.949798 7.548152 133.830244 -52.498029 -115.736362 33.422781 -9.958333 -12.214296 8.029770 37.529626 -7.161853 53.643771 39.912461 15.529433 -117.822936 69.061920 -95.727690 -38.062549 26.754298 -0.529962 
-0.031957 -1.694206 0.897623 -135.616910 -4.473974 95.174470 3.105715 -10.361864 -31.260687 -8.641201 -5.410832 48.830827 8.631757 3.693045 -35.299730 0.000000 -0.000000 0.000000 -4.980337 -7.339614 -26.846393 -8.609641 -11.284284 77.047061 1.678582 -5.581731 -18.058844 0.000000 -0.000000 0.000000 -3.821840 11.016771 32.218956 -1.719614 2.691083 -5.458691 2.148419 6.400816 -0.175631 1.479610 -25.258207 -5.033720 15.077193 -38.542460 -0.849528 -13.252498 -20.931518 -8.002643 -41.047235 -32.095914 9.273653 138.868869 -53.601868 -119.456765 34.271201 -9.453692 -12.050521 9.929929 36.071715 -5.487156 56.789201 35.464902 17.231800 -124.696387 72.298402 -101.962493 -41.214949 26.198127 -1.896754 
-0.025440 -1.691720 0.893144 -136.069620 -3.547439 95.643982 4.434429 -9.521780 -32.531268 -8.544416 -6.018783 50.559688 8.388111 3.614486 -35.703429 0.000000 -0.000000 0.000000 -6.109011 -9.294791 -29.791321 -8.793389 -10.830954 77.232358 1.100351 -3.892315 -19.887327 0.000000 -0.000000 0.000000 -2.073702 8.440471 35.761957 -2.478545 2.290226 -8.029355 0.907971 6.662296 0.872351 1.837704 -24.850062 -6.373394 16.084699 -37.568093 -1.137758 -15.352994 -16.846799 -6.204459 -44.302837 -27.220916 10.498079 144.049118 -55.287455 -124.852234 34.905128 -7.685884 -15.230877 13.582909 34.450072 -1.876751 61.300583 32.163612 19.238654 -130.256838 76.918438 -109.284445 -44.066611 27.040692 -3.123177 
